<svg width="21" height="20" fill="none" xmlns="http://www.w3.org/2000/svg"><path fill-rule="evenodd" clip-rule="evenodd" d="M13.568 2.337a8.033 8.033 0 0 0-3.22-.67C5.83 1.667 2.166 5.399 2.166 10c0 4.6 3.665 8.333 8.182 8.333a8.084 8.084 0 0 0 4.725-1.529 8.323 8.323 0 0 0 2.991-4.026.93.93 0 0 0-.554-1.182.905.905 0 0 0-1.16.564 6.474 6.474 0 0 1-2.327 3.132 6.287 6.287 0 0 1-3.675 1.19V3.519h.001a6.243 6.243 0 0 1 2.503.52 6.342 6.342 0 0 1 2.083 1.469l.388.459-2.49 2.534a.156.156 0 0 0 .024.238.15.15 0 0 0 .084.026h5.892V2.764a.153.153 0 0 0-.181-.151.15.15 0 0 0-.078.042l-1.962 1.999-.329-.39-.016-.017a8.16 8.16 0 0 0-2.7-1.91Zm-3.22 1.182V1.667v1.852Zm0 0v12.963c-3.513 0-6.363-2.904-6.363-6.482 0-3.578 2.85-6.481 6.363-6.481Z" fill="#197DB5"/></svg>