<svg width="32" height="32" viewBox="0 0 32 32" fill="none" xmlns="http://www.w3.org/2000/svg">
<path d="M15.9999 16.7814L21.6572 22.4374L19.7705 24.324L17.3332 21.8867V29.3334H14.6665V21.884L12.2292 24.324L10.3425 22.4374L15.9999 16.7814ZM15.9999 2.66669C18.2892 2.6668 20.4986 3.50817 22.2081 5.03085C23.9176 6.55352 25.008 8.65131 25.2719 10.9254C26.9309 11.3778 28.3782 12.3988 29.3607 13.8101C30.3433 15.2213 30.7987 16.9329 30.6474 18.6459C30.496 20.3588 29.7475 21.9641 28.5326 23.1811C27.3178 24.3981 25.7138 25.1496 24.0012 25.304L23.9999 22.6667C24.002 20.5695 23.1805 18.5554 21.7123 17.058C20.2441 15.5605 18.2467 14.6994 16.1499 14.6601C14.0531 14.6207 12.0247 15.4063 10.5014 16.8477C8.97814 18.2891 8.08173 20.2709 8.00519 22.3667L7.99986 22.6667V25.304C6.28713 25.1498 4.68307 24.3986 3.46804 23.1816C2.25301 21.9647 1.50429 20.3594 1.35276 18.6465C1.20122 16.9335 1.6565 15.2217 2.63902 13.8104C3.62154 12.399 5.0688 11.3779 6.72786 10.9254C6.99147 8.65119 8.08173 6.55324 9.7913 5.03051C11.5009 3.50778 13.7105 2.6665 15.9999 2.66669Z" fill="#47BC8B"/>
</svg>
