<svg width="14" height="14" viewBox="0 0 14 14" fill="none" xmlns="http://www.w3.org/2000/svg">
<path d="M6.99967 13.6666C3.31767 13.6666 0.333008 10.682 0.333008 6.99998C0.333008 3.31798 3.31767 0.333313 6.99967 0.333313C10.6817 0.333313 13.6663 3.31798 13.6663 6.99998C13.6663 10.682 10.6817 13.6666 6.99967 13.6666ZM6.99967 12.3333C8.41416 12.3333 9.77072 11.7714 10.7709 10.7712C11.7711 9.77102 12.333 8.41447 12.333 6.99998C12.333 5.58549 11.7711 4.22894 10.7709 3.22874C9.77072 2.22855 8.41416 1.66665 6.99967 1.66665C5.58519 1.66665 4.22863 2.22855 3.22844 3.22874C2.22824 4.22894 1.66634 5.58549 1.66634 6.99998C1.66634 8.41447 2.22824 9.77102 3.22844 10.7712C4.22863 11.7714 5.58519 12.3333 6.99967 12.3333ZM6.33301 3.66665H7.66634V4.99998H6.33301V3.66665ZM6.33301 6.33331H7.66634V10.3333H6.33301V6.33331Z" fill="#646464"/>
</svg>
