<svg width="131" height="48" fill="none" xmlns="http://www.w3.org/2000/svg"><path d="m49.498 40.578 2.721-7.426-6.417-17.808h4.065l4.066 13.776h.168l4.032-13.776h4.1l-6.72 18.547-1.95 6.687h-4.065Zm19.124-5.141c-1.59 0-2.901-.549-3.931-1.647-1.03-1.097-1.546-2.654-1.546-4.67 0-1.613.336-2.878 1.008-3.797.694-.918 1.658-1.568 2.89-1.949 1.254-.403 2.721-.604 4.401-.604h3.091c0-1.053-.044-1.893-.134-2.52-.067-.65-.202-1.132-.403-1.445-.18-.247-.437-.415-.773-.504-.314-.112-.773-.168-1.378-.168-.828 0-1.668.078-2.52.235-.85.134-1.635.302-2.352.504-.694.202-1.265.38-1.713.538l-.639.235-1.008-2.89.639-.269c.448-.179 1.041-.392 1.78-.638.762-.246 1.613-.46 2.554-.638a14.56 14.56 0 0 1 2.99-.303c1.68 0 3.013.303 3.999.907a5.013 5.013 0 0 1 2.15 2.554c.448 1.075.672 2.34.672 3.797V35h-2.486l-.504-2.117h-.202l-.806.538c-.403.269-.907.56-1.512.873-.582.314-1.243.583-1.982.807-.74.224-1.501.336-2.285.336Zm.94-3.26c.717 0 1.423-.111 2.117-.335.717-.224 1.322-.46 1.815-.706.515-.269.862-.46 1.041-.571v-4.637a23.366 23.366 0 0 0-1.075-.1c-.56-.068-1.299-.102-2.217-.102-1.792 0-2.912.19-3.36.572-.493.425-.74 1.332-.74 2.721 0 1.12.18 1.927.538 2.42.38.492 1.008.739 1.882.739ZM83.14 35V15.344h2.52l.47 1.949h.135c.403-.224.963-.527 1.68-.907a18.17 18.17 0 0 1 2.385-1.042 8.092 8.092 0 0 1 2.688-.47c1.03 0 1.893.235 2.588.705a3.974 3.974 0 0 1 1.579 1.848 34.704 34.704 0 0 1 3.057-1.713 8.287 8.287 0 0 1 3.696-.84c1.277 0 2.274.313 2.991.94.717.605 1.209 1.445 1.478 2.52.291 1.076.437 2.33.437 3.764V35h-3.898V23.038c0-.985-.022-1.814-.067-2.486-.045-.672-.179-1.176-.403-1.512a1.162 1.162 0 0 0-.773-.504 3.295 3.295 0 0 0-.907-.134c-.627 0-1.288.112-1.982.336-.672.201-1.288.448-1.848.739-.538.269-.919.47-1.143.605.023.336.045.683.067 1.041.023.336.034.683.034 1.042V35h-3.864V22.971c0-1.12-.034-1.971-.1-2.553-.046-.605-.18-1.076-.404-1.412a1.331 1.331 0 0 0-.773-.47 2.853 2.853 0 0 0-.84-.134c-.605 0-1.232.1-1.881.302-.628.18-1.21.392-1.748.638-.537.247-.963.46-1.276.639V35h-3.898Zm37.123.437c-2.016 0-3.606-.415-4.771-1.243-1.142-.83-1.96-2.005-2.453-3.528-.493-1.546-.739-3.372-.739-5.477 0-2.106.246-3.92.739-5.443.493-1.546 1.311-2.733 2.453-3.562 1.165-.851 2.755-1.277 4.771-1.277 1.994 0 3.562.426 4.704 1.277 1.165.829 1.983 2.016 2.453 3.562.493 1.523.739 3.337.739 5.443 0 2.105-.246 3.931-.739 5.477-.47 1.523-1.288 2.699-2.453 3.528-1.142.828-2.71 1.243-4.704 1.243Zm0-3.125c1.008 0 1.792-.18 2.352-.538.583-.358.986-1.052 1.21-2.083.246-1.03.369-2.531.369-4.502 0-1.994-.123-3.506-.369-4.536-.224-1.03-.627-1.725-1.21-2.083-.582-.359-1.366-.538-2.352-.538-1.03 0-1.837.18-2.419.538-.582.358-.997 1.052-1.243 2.083-.247 1.03-.37 2.542-.37 4.536 0 1.971.123 3.472.37 4.502.246 1.03.661 1.725 1.243 2.083.582.359 1.389.538 2.419.538Z" fill="#111"/><path d="m9.072 21.064 9.072 9.072-9.072 9.072-8.224-8.224a1.2 1.2 0 0 1 0-1.697l8.224-8.223ZM20.528 30.136l9.072-9.072 8.223 8.223a1.2 1.2 0 0 1 0 1.697L29.6 39.208l-9.072-9.072ZM10.264 19.872l8.223-8.223a1.2 1.2 0 0 1 1.697 0l8.223 8.223-9.071 9.072-9.072-9.072Z" fill="#197DB5"/></svg>