<svg width="20" height="20" viewBox="0 0 20 20" fill="none" xmlns="http://www.w3.org/2000/svg">
<path d="M15.0003 5.83333H17.5003C17.7213 5.83333 17.9333 5.92113 18.0896 6.07741C18.2459 6.23369 18.3337 6.44565 18.3337 6.66667V16.6667C18.3337 16.8877 18.2459 17.0996 18.0896 17.2559C17.9333 17.4122 17.7213 17.5 17.5003 17.5H2.50033C2.27931 17.5 2.06735 17.4122 1.91107 17.2559C1.75479 17.0996 1.66699 16.8877 1.66699 16.6667V3.33333C1.66699 3.11232 1.75479 2.90036 1.91107 2.74408C2.06735 2.5878 2.27931 2.5 2.50033 2.5H15.0003V5.83333ZM3.33366 7.5V15.8333H16.667V7.5H3.33366ZM3.33366 4.16667V5.83333H13.3337V4.16667H3.33366ZM12.5003 10.8333H15.0003V12.5H12.5003V10.8333Z" fill="#414141"/>
</svg>
