<svg width="20" height="20" viewBox="0 0 20 20" fill="none" xmlns="http://www.w3.org/2000/svg">
<path d="M3.33301 18.3333C3.33301 16.5652 4.03539 14.8695 5.28563 13.6193C6.53587 12.369 8.23156 11.6666 9.99967 11.6666C11.7678 11.6666 13.4635 12.369 14.7137 13.6193C15.964 14.8695 16.6663 16.5652 16.6663 18.3333H14.9997C14.9997 17.0072 14.4729 15.7355 13.5352 14.7978C12.5975 13.8601 11.3258 13.3333 9.99967 13.3333C8.67359 13.3333 7.40182 13.8601 6.46414 14.7978C5.52646 15.7355 4.99967 17.0072 4.99967 18.3333H3.33301ZM9.99967 10.8333C7.23717 10.8333 4.99967 8.59581 4.99967 5.83331C4.99967 3.07081 7.23717 0.833313 9.99967 0.833313C12.7622 0.833313 14.9997 3.07081 14.9997 5.83331C14.9997 8.59581 12.7622 10.8333 9.99967 10.8333ZM9.99967 9.16665C11.8413 9.16665 13.333 7.67498 13.333 5.83331C13.333 3.99165 11.8413 2.49998 9.99967 2.49998C8.15801 2.49998 6.66634 3.99165 6.66634 5.83331C6.66634 7.67498 8.15801 9.16665 9.99967 9.16665Z" fill="#414141"/>
</svg>
