<svg width="32" height="32" viewBox="0 0 32 32" fill="none" xmlns="http://www.w3.org/2000/svg">
<path d="M28 12V27.9906C28.0012 28.1657 27.968 28.3393 27.9021 28.5016C27.8362 28.6638 27.739 28.8115 27.6161 28.9362C27.4931 29.0609 27.3468 29.1601 27.1855 29.2282C27.0242 29.2964 26.8511 29.3321 26.676 29.3333H5.324C4.97308 29.3333 4.63652 29.194 4.38826 28.946C4.14 28.698 4.00035 28.3615 4 28.0106V3.98929C4 3.27329 4.596 2.66663 5.33067 2.66663H18.6667V10.6666C18.6667 11.0202 18.8071 11.3594 19.0572 11.6094C19.3072 11.8595 19.6464 12 20 12H28ZM28 9.33329H21.3333V2.67063L28 9.33329Z" fill="#B8B8B8"/>
</svg>
