<svg width="53" height="54" viewBox="0 0 53 54" fill="none" xmlns="http://www.w3.org/2000/svg">
<path d="M50.6167 34.1965C51.8377 34.5686 52.5351 35.8649 52.06 37.0496C50.2307 41.6116 47.184 45.6024 43.2332 48.5751C38.6648 52.0124 33.1232 53.9108 27.4067 53.9969C21.6903 54.0831 16.094 52.3524 11.4241 49.0543C6.75423 45.7562 3.25178 41.0608 1.42131 35.6447C-0.40916 30.2285 -0.473157 24.3711 1.23853 18.9163C2.95023 13.4614 6.34925 8.69066 10.946 5.2913C15.5427 1.89193 21.0998 0.039421 26.8168 0.000621771C31.7609 -0.0329325 36.6039 1.29151 40.8257 3.80837C41.9221 4.462 42.154 5.91565 41.409 6.95215C40.6641 7.98864 39.2249 8.21332 38.1171 7.57918C34.6996 5.62287 30.8131 4.59601 26.8481 4.62292C22.1099 4.65507 17.5042 6.19043 13.6944 9.00783C9.88466 11.8252 7.06755 15.7792 5.6489 20.3002C4.23025 24.8212 4.28329 29.6758 5.80038 34.1647C7.31747 38.6536 10.2203 42.5451 14.0907 45.2786C17.9611 48.0121 22.5993 49.4464 27.3371 49.3751C32.0749 49.3037 36.6678 47.7302 40.4541 44.8814C43.6225 42.4975 46.0892 39.3235 47.6193 35.6951C48.1152 34.5189 49.3957 33.8245 50.6167 34.1965Z" fill="#197DB5"/>
</svg>
