<svg width="94" height="28" fill="none" xmlns="http://www.w3.org/2000/svg"><path d="M35 23.614V4.358h3.152l-.134 16.419 6.978-.083v2.92H35ZM52.974 24a9.214 9.214 0 0 1-2.883-.44c-.88-.295-1.67-.809-2.37-1.543-.683-.735-1.222-1.754-1.617-3.058-.378-1.304-.566-2.976-.566-5.014 0-2.02.188-3.673.566-4.959.395-1.304.934-2.314 1.616-3.03.7-.735 1.491-1.24 2.371-1.515A9.216 9.216 0 0 1 52.974 4c1.006 0 1.958.147 2.856.44.898.276 1.689.781 2.371 1.516.683.716 1.222 1.726 1.617 3.03.395 1.286.593 2.939.593 4.959 0 2.038-.198 3.71-.593 5.014-.395 1.304-.934 2.323-1.617 3.058-.682.734-1.473 1.248-2.37 1.542-.899.294-1.85.441-2.857.441Zm0-2.865c.719 0 1.339-.083 1.86-.248.52-.184.942-.514 1.266-.992.341-.477.593-1.184.754-2.12.162-.956.243-2.205.243-3.747 0-1.562-.081-2.81-.243-3.747-.143-.955-.386-1.671-.727-2.149-.324-.496-.746-.826-1.267-.991-.52-.184-1.15-.276-1.886-.276s-1.365.092-1.886.276c-.52.165-.952.495-1.293.991-.323.478-.566 1.194-.728 2.149-.161.937-.242 2.185-.242 3.746 0 1.543.08 2.792.242 3.747.162.937.413 1.653.755 2.149.341.477.772.799 1.293.964.521.165 1.14.248 1.86.248ZM70.401 23.973a9.686 9.686 0 0 1-2.856-.414 5.753 5.753 0 0 1-2.398-1.46c-.683-.716-1.222-1.735-1.617-3.058-.395-1.322-.592-3.03-.592-5.124 0-2.057.188-3.728.565-5.013.378-1.304.907-2.305 1.59-3.003A5.576 5.576 0 0 1 67.6 4.413c.97-.275 2.039-.413 3.206-.413.593 0 1.213.037 1.86.11.664.055 1.284.129 1.858.22.593.092 1.07.175 1.428.249l-.35 2.672-2.075-.22a22.878 22.878 0 0 0-2.882-.166c-1.671 0-2.722.22-3.153.661-.305.312-.593.964-.862 1.956-.252.992-.377 2.47-.377 4.435 0 1.488.072 2.682.215 3.582.162.881.341 1.552.54 2.01.215.441.394.744.538.91.198.202.52.385.97.55.467.148 1.15.221 2.048.221 1.006 0 1.814-.1 2.425-.303v-5.152l-2.802-.165V13.23h5.846v9.586l-.754.303c-.485.184-1.15.368-1.994.551-.844.202-1.805.303-2.883.303ZM86.564 24a9.215 9.215 0 0 1-2.883-.44c-.88-.295-1.671-.809-2.371-1.543-.683-.735-1.222-1.754-1.617-3.058-.377-1.304-.566-2.976-.566-5.014 0-2.02.189-3.673.566-4.959.395-1.304.934-2.314 1.617-3.03.7-.735 1.49-1.24 2.37-1.515A9.216 9.216 0 0 1 86.563 4c1.006 0 1.958.147 2.857.44.898.276 1.688.781 2.37 1.516.683.716 1.222 1.726 1.617 3.03.395 1.286.593 2.939.593 4.959 0 2.038-.198 3.71-.593 5.014-.395 1.304-.934 2.323-1.616 3.058-.683.734-1.473 1.248-2.371 1.542-.899.294-1.85.441-2.856.441Zm0-2.865c.718 0 1.338-.083 1.859-.248.52-.184.943-.514 1.266-.992.341-.477.593-1.184.754-2.12.162-.956.243-2.205.243-3.747 0-1.562-.08-2.81-.243-3.747-.143-.955-.386-1.671-.727-2.149-.323-.496-.745-.826-1.266-.991-.521-.184-1.15-.276-1.886-.276-.737 0-1.366.092-1.887.276-.52.165-.952.495-1.293.991-.323.478-.566 1.194-.727 2.149-.162.937-.243 2.185-.243 3.746 0 1.543.081 2.792.243 3.747.161.937.413 1.653.754 2.149.341.477.772.799 1.293.964.521.165 1.141.248 1.86.248Z" fill="#111"/><path fill="#197DB5" d="m14 0 14 14-14 14L0 14z"/><path fill="#F8F8F8" d="M14 8.177 19.823 14 14 19.823 8.177 14z"/></svg>