<svg width="109" height="40" viewBox="0 0 109 40" fill="none" xmlns="http://www.w3.org/2000/svg">
<path d="M7.56006 17.5531L15.12 25.113L7.56006 32.673L0.707219 25.8202C0.316695 25.4296 0.316695 24.7965 0.707219 24.4059L7.56006 17.5531Z" fill="#197DB5"/>
<path d="M17.1064 25.1129L24.6664 17.553L31.5192 24.4058C31.9098 24.7964 31.9098 25.4295 31.5192 25.8201L24.6664 32.6729L17.1064 25.1129Z" fill="#197DB5"/>
<path d="M8.55322 16.5599L15.4061 9.7071C15.7966 9.31657 16.4298 9.31657 16.8203 9.7071L23.6731 16.5599L16.1132 24.1199L8.55322 16.5599Z" fill="#197DB5"/>
<path d="M41.248 33.648L43.516 27.46L38.168 12.62H41.556L44.944 24.1H45.084L48.444 12.62H51.86L46.26 28.076L44.636 33.648H41.248ZM57.1847 29.364C55.8594 29.364 54.7674 28.9067 53.9087 27.992C53.0501 27.0773 52.6207 25.78 52.6207 24.1C52.6207 22.756 52.9007 21.7013 53.4607 20.936C54.0394 20.1707 54.8421 19.6293 55.8687 19.312C56.9141 18.976 58.1367 18.808 59.5367 18.808H62.1127C62.1127 17.9307 62.0754 17.2307 62.0007 16.708C61.9447 16.1667 61.8327 15.7653 61.6647 15.504C61.5154 15.2987 61.3007 15.1587 61.0207 15.084C60.7594 14.9907 60.3767 14.944 59.8727 14.944C59.1821 14.944 58.4821 15.0093 57.7727 15.14C57.0634 15.252 56.4101 15.392 55.8127 15.56C55.2341 15.728 54.7581 15.8773 54.3847 16.008C54.0301 16.1387 53.8527 16.204 53.8527 16.204L53.0127 13.796C53.0127 13.796 53.1901 13.7213 53.5447 13.572C53.9181 13.4227 54.4127 13.2453 55.0287 13.04C55.6634 12.8347 56.3727 12.6573 57.1567 12.508C57.9594 12.34 58.7901 12.256 59.6487 12.256C61.0487 12.256 62.1594 12.508 62.9807 13.012C63.8207 13.516 64.4181 14.2253 64.7727 15.14C65.1461 16.036 65.3327 17.0907 65.3327 18.304V29H63.2607L62.8407 27.236H62.6727C62.5607 27.3107 62.3367 27.46 62.0007 27.684C61.6647 27.908 61.2447 28.1507 60.7407 28.412C60.2554 28.6733 59.7047 28.8973 59.0887 29.084C58.4727 29.2707 57.8381 29.364 57.1847 29.364ZM57.9687 26.648C58.5661 26.648 59.1541 26.5547 59.7327 26.368C60.3301 26.1813 60.8341 25.9853 61.2447 25.78C61.6741 25.556 61.9634 25.3973 62.1127 25.304V21.44C61.9821 21.4213 61.6834 21.3933 61.2167 21.356C60.7501 21.3 60.1341 21.272 59.3687 21.272C57.8754 21.272 56.9421 21.4307 56.5687 21.748C56.1581 22.1027 55.9527 22.8587 55.9527 24.016C55.9527 24.9493 56.1021 25.6213 56.4007 26.032C56.7181 26.4427 57.2407 26.648 57.9687 26.648ZM69.2824 29V12.62H71.3824L71.7744 14.244H71.8864C72.2224 14.0573 72.689 13.8053 73.2864 13.488C73.8837 13.1707 74.5464 12.8813 75.2744 12.62C76.021 12.3587 76.7677 12.228 77.5144 12.228C78.373 12.228 79.0917 12.424 79.6704 12.816C80.2677 13.1893 80.7064 13.7027 80.9864 14.356C81.7517 13.8707 82.601 13.3947 83.5344 12.928C84.4864 12.4613 85.513 12.228 86.6144 12.228C87.6784 12.228 88.509 12.4893 89.1064 13.012C89.7037 13.516 90.1144 14.216 90.3384 15.112C90.581 16.008 90.7024 17.0533 90.7024 18.248V29H87.4544V19.032C87.4544 18.2107 87.4357 17.52 87.3984 16.96C87.361 16.4 87.249 15.98 87.0624 15.7C86.913 15.476 86.6984 15.336 86.4184 15.28C86.157 15.2053 85.905 15.168 85.6624 15.168C85.1397 15.168 84.589 15.2613 84.0104 15.448C83.4504 15.616 82.937 15.8213 82.4704 16.064C82.0224 16.288 81.705 16.456 81.5184 16.568C81.537 16.848 81.5557 17.1373 81.5744 17.436C81.593 17.716 81.6024 18.0053 81.6024 18.304V29H78.3824V18.976C78.3824 18.0427 78.3544 17.3333 78.2984 16.848C78.261 16.344 78.149 15.952 77.9624 15.672C77.7944 15.4667 77.5797 15.336 77.3184 15.28C77.0757 15.2053 76.8424 15.168 76.6184 15.168C76.1144 15.168 75.5917 15.252 75.0504 15.42C74.5277 15.5693 74.0424 15.7467 73.5944 15.952C73.1464 16.1573 72.7917 16.3347 72.5304 16.484V29H69.2824ZM100.218 29.364C98.5383 29.364 97.213 29.0187 96.2423 28.328C95.2903 27.6373 94.609 26.6573 94.1983 25.388C93.7877 24.1 93.5823 22.5787 93.5823 20.824C93.5823 19.0693 93.7877 17.5573 94.1983 16.288C94.609 15 95.2903 14.0107 96.2423 13.32C97.213 12.6107 98.5383 12.256 100.218 12.256C101.88 12.256 103.186 12.6107 104.138 13.32C105.109 14.0107 105.79 15 106.182 16.288C106.593 17.5573 106.798 19.0693 106.798 20.824C106.798 22.5787 106.593 24.1 106.182 25.388C105.79 26.6573 105.109 27.6373 104.138 28.328C103.186 29.0187 101.88 29.364 100.218 29.364ZM100.218 26.76C101.058 26.76 101.712 26.6107 102.178 26.312C102.664 26.0133 103 25.4347 103.186 24.576C103.392 23.7173 103.494 22.4667 103.494 20.824C103.494 19.1627 103.392 17.9027 103.186 17.044C103 16.1853 102.664 15.6067 102.178 15.308C101.693 15.0093 101.04 14.86 100.218 14.86C99.3597 14.86 98.6877 15.0093 98.2023 15.308C97.717 15.6067 97.3717 16.1853 97.1663 17.044C96.961 17.9027 96.8583 19.1627 96.8583 20.824C96.8583 22.4667 96.961 23.7173 97.1663 24.576C97.3717 25.4347 97.717 26.0133 98.2023 26.312C98.6877 26.6107 99.3597 26.76 100.218 26.76Z" fill="#111111"/>
</svg>
